<svg width="32" height="32" viewBox="0 0 32 32" fill="none" xmlns="http://www.w3.org/2000/svg">
  <!-- Crystal ball base -->
  <ellipse cx="16" cy="25" rx="8" ry="3" fill="#1e40af" opacity="0.2"/>
  
  <!-- Crystal ball -->
  <circle cx="16" cy="16" r="10" stroke="#1e40af" stroke-width="2" fill="none"/>
  
  <!-- Inner reflection highlight -->
  <circle cx="13" cy="11" r="2.5" fill="#1e40af" opacity="0.3"/>
  
  <!-- Miniature roller coaster inside -->
  <path d="M10 19c1.5-2.5 3-2.5 4.5 0s3 2.5 4.5 0" stroke="#1e40af" stroke-width="1.5" fill="none" stroke-linecap="round"/>
  
  <!-- Support pillars for mini coaster -->
  <path d="M11.5 16v3M16 14v5M20.5 16v3" stroke="#1e40af" stroke-width="1.2" stroke-linecap="round" opacity="0.7"/>
  
  <!-- Forecast trend lines around the crystal ball -->
  <path d="M4 11l2.5 1M6.5 7l1.5 2.5M25.5 11l2.5-1M25.5 7l1.5 2.5" stroke="#f97316" stroke-width="2" stroke-linecap="round" opacity="0.8"/>
  
  <!-- Data points/sparkles -->
  <circle cx="8" cy="13" r="1" fill="#f97316" opacity="0.7"/>
  <circle cx="24" cy="13" r="1" fill="#f97316" opacity="0.7"/>
  <circle cx="5" cy="21" r="1" fill="#f97316" opacity="0.7"/>
  <circle cx="27" cy="21" r="1" fill="#f97316" opacity="0.7"/>
</svg>